name rise44.8762peak52.3436fall86.788.mot
datacolumns 19
datarows 29
range 20.78491900000000 20.83158300000000
endheader
time	ground_force1_vx	ground_force1_vy	ground_force1_vz	ground_force1_px	ground_force1_py	ground_force1_pz	ground_force2_vx	ground_force2_vy	ground_force2_vz	ground_force2_px	ground_force2_py	ground_force2_pz	ground_torque1_x	ground_torque1_y	ground_torque1_z	ground_torque2_x	ground_torque2_y	ground_torque2_z	
20.78491900000000	-53.70422300000000	785.44678499999998	63.30733000000000	0.04881900000000	0.00000000000000	0.15092800000000	-9.96818700000000	41.23364000000000	8.23307200000000	0.28451800000000	0.00000000000000	-0.06652200000000	0.00000000000000	23.33871500000000	0.00000000000000	0.00000000000000	3.62108300000000	0.00000000000000	
20.78659000000000	-54.42596600000000	783.50256400000001	63.08187600000000	0.04805500000000	0.00000000000000	0.15082800000000	-10.95429800000000	48.30409500000000	9.26498200000000	0.28982300000000	0.00000000000000	-0.06724100000000	0.00000000000000	23.37552000000000	0.00000000000000	0.00000000000000	4.16355000000000	0.00000000000000	
20.78824800000000	-55.15988600000000	781.48590600000000	62.83839900000000	0.04729800000000	0.00000000000000	0.15072500000000	-11.76019000000000	55.45585300000000	10.20481300000000	0.29461300000000	0.00000000000000	-0.06789500000000	0.00000000000000	23.41568900000000	0.00000000000000	0.00000000000000	4.68222300000000	0.00000000000000	
20.78991700000000	-55.90556800000000	779.39459699999998	62.57672000000000	0.04654900000000	0.00000000000000	0.15061900000000	-12.35976100000000	62.59571200000000	11.03063300000000	0.29896500000000	0.00000000000000	-0.06849500000000	0.00000000000000	23.45917600000000	0.00000000000000	0.00000000000000	5.16557000000000	0.00000000000000	
20.79159000000000	-56.66253600000000	777.22625900000003	62.29667700000000	0.04580800000000	0.00000000000000	0.15051000000000	-12.73785500000000	69.65316900000001	11.72776800000000	0.30293900000000	0.00000000000000	-0.06904900000000	0.00000000000000	23.50591600000000	0.00000000000000	0.00000000000000	5.60495500000000	0.00000000000000	
20.79326800000000	-57.43025000000000	774.97835499999997	61.99813000000000	0.04507500000000	0.00000000000000	0.15039700000000	-12.89008100000000	76.58256700000000	12.28890000000000	0.30658600000000	0.00000000000000	-0.06956300000000	0.00000000000000	23.55582300000000	0.00000000000000	0.00000000000000	5.99484800000000	0.00000000000000	
20.79491500000000	-58.20811000000000	772.64819299999999	61.68096000000000	0.04435000000000	0.00000000000000	0.15028200000000	-12.82177300000000	83.36283700000000	12.71356300000000	0.30994600000000	0.00000000000000	-0.07004500000000	0.00000000000000	23.60878800000000	0.00000000000000	0.00000000000000	6.33274600000000	0.00000000000000	
20.79658300000000	-58.99545000000000	770.23293600000000	61.34507000000000	0.04363300000000	0.00000000000000	0.15016300000000	-12.54633800000000	89.99526700000000	13.00714600000000	0.31305300000000	0.00000000000000	-0.07049700000000	0.00000000000000	23.66468400000000	0.00000000000000	0.00000000000000	6.61885900000000	0.00000000000000	
20.79825600000000	-59.79153700000000	767.72960399999999	60.99038500000000	0.04292400000000	0.00000000000000	0.15004200000000	-12.08320800000000	96.49980200000000	13.17960000000000	0.31593600000000	0.00000000000000	-0.07092500000000	0.00000000000000	23.72335800000000	0.00000000000000	0.00000000000000	6.85562300000000	0.00000000000000	
20.79992300000000	-60.59557400000000	765.13508899999999	60.61685100000000	0.04222300000000	0.00000000000000	0.14991700000000	-11.45566100000000	102.91045699999999	13.24398600000000	0.31861800000000	0.00000000000000	-0.07133100000000	0.00000000000000	23.78464000000000	0.00000000000000	0.00000000000000	7.04712300000000	0.00000000000000	
20.80158400000000	-61.40669400000000	762.44616399999995	60.22444000000000	0.04153100000000	0.00000000000000	0.14979000000000	-10.68869500000000	109.27037100000000	13.21503100000000	0.32111900000000	0.00000000000000	-0.07171800000000	0.00000000000000	23.84833400000000	0.00000000000000	0.00000000000000	7.19846900000000	0.00000000000000	
20.80325200000000	-62.22396300000000	759.65948800000001	59.81314600000000	0.04084700000000	0.00000000000000	0.14966000000000	-9.80712500000000	115.62696300000000	13.10778500000000	0.32345700000000	0.00000000000000	-0.07208800000000	0.00000000000000	23.91422500000000	0.00000000000000	0.00000000000000	7.31520900000000	0.00000000000000	
20.80491600000000	-63.04637800000000	756.77162499999997	59.38298800000000	0.04017100000000	0.00000000000000	0.14952700000000	-8.83401300000000	122.02756400000000	12.93649600000000	0.32564700000000	0.00000000000000	-0.07244400000000	0.00000000000000	23.98207400000000	0.00000000000000	0.00000000000000	7.40280400000000	0.00000000000000	
20.80659000000000	-63.87286600000000	753.77905199999998	58.93400900000000	0.03950300000000	0.00000000000000	0.14939100000000	-7.78950900000000	128.51578400000000	12.71373100000000	0.32770100000000	0.00000000000000	-0.07278600000000	0.00000000000000	24.05162200000000	0.00000000000000	0.00000000000000	7.46619900000000	0.00000000000000	
20.80825300000000	-64.70228500000000	750.67817200000002	58.46627700000000	0.03884300000000	0.00000000000000	0.14925200000000	-6.69009800000000	135.12876800000001	12.44978000000000	0.32962900000000	0.00000000000000	-0.07311600000000	0.00000000000000	24.12258900000000	0.00000000000000	0.00000000000000	7.50952000000000	0.00000000000000	
20.80992800000000	-65.53342499999999	747.46532900000000	57.97988600000000	0.03819000000000	0.00000000000000	0.14911100000000	-5.54826600000000	141.89539099999999	12.15234100000000	0.33144200000000	0.00000000000000	-0.07343600000000	0.00000000000000	24.19467200000000	0.00000000000000	0.00000000000000	7.53587700000000	0.00000000000000	
20.81158700000000	-66.36500500000000	744.13682200000005	57.47495600000000	0.03754500000000	0.00000000000000	0.14896800000000	-4.37251100000000	148.83535800000001	11.82644700000000	0.33314700000000	0.00000000000000	-0.07374700000000	0.00000000000000	24.26754900000000	0.00000000000000	0.00000000000000	7.54729200000000	0.00000000000000	
20.81325400000000	-67.19568000000000	740.68891699999995	56.95163100000000	0.03690800000000	0.00000000000000	0.14882200000000	-3.16765600000000	155.95912600000000	11.47461400000000	0.33475300000000	0.00000000000000	-0.07404900000000	0.00000000000000	24.34087900000000	0.00000000000000	0.00000000000000	7.54471700000000	0.00000000000000	
20.81491700000000	-68.02403300000000	737.11786700000005	56.41008500000000	0.03627700000000	0.00000000000000	0.14867400000000	-1.93536900000000	163.26848100000001	11.09714500000000	0.33626400000000	0.00000000000000	-0.07434300000000	0.00000000000000	24.41429900000000	0.00000000000000	0.00000000000000	7.52814100000000	0.00000000000000	
20.81659000000000	-68.84858500000000	733.41992400000004	55.85051300000000	0.03565200000000	0.00000000000000	0.14852400000000	-0.67483100000000	170.75762800000001	10.69254900000000	0.33768700000000	0.00000000000000	-0.07463100000000	0.00000000000000	24.48742900000000	0.00000000000000	0.00000000000000	7.49674300000000	0.00000000000000	
20.81825400000000	-69.66779200000001	729.59135600000002	55.27314200000000	0.03503400000000	0.00000000000000	0.14837200000000	0.61655000000000	178.41460799999999	10.25801400000000	0.33902600000000	0.00000000000000	-0.07491100000000	0.00000000000000	24.55987100000000	0.00000000000000	0.00000000000000	7.44909300000000	0.00000000000000	
20.81991700000000	-70.48004700000000	725.62846600000000	54.67822300000000	0.03442200000000	0.00000000000000	0.14821700000000	1.94241000000000	186.22287700000001	9.78989600000000	0.34028700000000	0.00000000000000	-0.07518700000000	0.00000000000000	24.63120800000000	0.00000000000000	0.00000000000000	7.38335200000000	0.00000000000000	
20.82158200000000	-71.28368300000000	721.52760499999999	54.06603200000000	0.03381600000000	0.00000000000000	0.14806100000000	3.30677000000000	194.16290100000001	9.28417900000000	0.34147100000000	0.00000000000000	-0.07545600000000	0.00000000000000	24.70100900000000	0.00000000000000	0.00000000000000	7.29748300000000	0.00000000000000	
20.82325400000000	-72.07697899999999	717.28519300000005	53.43687400000000	0.03321400000000	0.00000000000000	0.14790300000000	4.71346300000000	202.21364700000001	8.73688900000000	0.34258300000000	0.00000000000000	-0.07572100000000	0.00000000000000	24.76882800000000	0.00000000000000	0.00000000000000	7.18943300000000	0.00000000000000	
20.82491800000000	-72.85815599999999	712.89773500000001	52.79108100000000	0.03261700000000	0.00000000000000	0.14774400000000	6.16568800000000	210.35388499999999	8.14442000000000	0.34362500000000	0.00000000000000	-0.07598100000000	0.00000000000000	24.83420300000000	0.00000000000000	0.00000000000000	7.05728900000000	0.00000000000000	
20.82659100000000	-73.62538499999999	708.36184200000002	52.12900800000000	0.03202400000000	0.00000000000000	0.14758300000000	7.66568100000000	218.56323699999999	7.50378900000000	0.34460000000000	0.00000000000000	-0.07623700000000	0.00000000000000	24.89665900000000	0.00000000000000	0.00000000000000	6.89940200000000	0.00000000000000	
20.82824900000000	-74.37679199999999	703.67424800000003	51.45103900000000	0.03143500000000	0.00000000000000	0.14742000000000	9.21453000000000	226.82295300000001	6.81279800000000	0.34551100000000	0.00000000000000	-0.07648900000000	0.00000000000000	24.95571300000000	0.00000000000000	0.00000000000000	6.71446600000000	0.00000000000000	
20.82992200000000	-75.11045600000000	698.83183099999997	50.75758400000000	0.03084800000000	0.00000000000000	0.14725600000000	10.81209600000000	235.11640499999999	6.07011400000000	0.34635800000000	0.00000000000000	-0.07673700000000	0.00000000000000	25.01086600000000	0.00000000000000	0.00000000000000	6.50157300000000	0.00000000000000	
20.83158300000000	-75.82441900000001	693.83163200000001	50.04907500000000	0.03026500000000	0.00000000000000	0.14709100000000	12.45703900000000	243.42932900000000	5.27527900000000	0.34714400000000	0.00000000000000	-0.07698200000000	0.00000000000000	25.06161600000000	0.00000000000000	0.00000000000000	6.26022200000000	0.00000000000000	
